<svg xmlns="http://www.w3.org/2000/svg">
  <symbol id="home" viewBox="0 20 950 950">
    <path d="M804.571 566.857v274.286q0 14.857-10.857 25.714t-25.714 10.857h-219.429v-219.429h-146.286v219.429h-219.429q-14.857 0-25.714-10.857t-10.857-25.714v-274.286q0-0.571 0.286-1.714t0.286-1.714l328.571-270.857 328.571 270.857q0.571 1.143 0.571 3.429zM932 527.429l-35.429 42.286q-4.571 5.143-12 6.286h-1.714q-7.429 0-12-4l-395.429-329.714-395.429 329.714q-6.857 4.571-13.714 4-7.429-1.143-12-6.286l-35.429-42.286q-4.571-5.714-4-13.429t6.286-12.286l410.857-342.286q18.286-14.857 43.429-14.857t43.429 14.857l139.429 116.571v-111.429q0-8 5.143-13.143t13.143-5.143h109.714q8 0 13.143 5.143t5.143 13.143v233.143l125.143 104q5.714 4.571 6.286 12.286t-4 13.429z"></path>
  </symbol>

   <symbol id="macaca" viewBox="0 0 420 340">
    <path d="M215,27.73l0,0.15,0.17-.09,0.65,0.32s0-.27.08-0.71c2.8-1.46,11.61-6,18.85-9.18a61.68,61.68,0,0,1,13.52-4.41,63.41,63.41,0,0,1,12.9-1.49,154.83,154.83,0,0,1,20.38,1.49,17,17,0,0,0-2.79-3.68A40,40,0,0,0,268,2.83c-6.32-3.13-23.2-3.24-31.64,0a31.7,31.7,0,0,0-7.1,3.49,35.14,35.14,0,0,0-7.75,7.5,41.74,41.74,0,0,0-3.47,5.8,48.44,48.44,0,0,0-2.24,5.52c0-.06,0-0.12,0-0.19a9.64,9.64,0,0,0-.78-2.38,11.77,11.77,0,0,0-2.91-3.48,17.88,17.88,0,0,0-3.38-2c-4.21-2.13-12.92-3.92-17.26-3.64a53.37,53.37,0,0,0-11.29,1.82s12.24,2.73,18.69,5.06C202.8,21.7,212.26,26.35,215,27.73Z" transform="translate(-0.5 0.06)"/>
    <path d="M419,128.58a49.89,49.89,0,0,0-72.43-44.52A159.63,159.63,0,0,0,323,65.36c-29.9-19.69-70-36-111.87-36-40.14,0-70.28,9.49-99.61,27.61A174.1,174.1,0,0,0,76.24,85.59a49.91,49.91,0,1,0-37.75,91.34c0,0.53,0,1.05,0,1.58,0,95.5,77.33,158.33,172.72,158.33S383.89,274,383.89,178.5c0-.76,0-1.5,0-2.25A49.92,49.92,0,0,0,419,128.58ZM313.2,287c-12.69,6.67-26,13.74-42.42,18-24.46,6.31-51.76,8.21-61.23,8.21-12.18,0-38.55-2.69-60.51-8.21-17-4.27-29.29-10.21-42.78-18-27.52-15.85-35.59-46.38-35.59-51,0-6.49-.92-13.08,0-18.37,3.16-18.15,12.9-29,24.67-37.76a70.24,70.24,0,0,1,9.22-5.77,68.75,68.75,0,0,1-7.29-30.86c0-38.91,32.33-70.45,72.21-70.45a73.14,73.14,0,0,1,39.92,11.75A73.14,73.14,0,0,1,249.33,72.8c39.88,0,72.21,31.54,72.21,70.45A68.74,68.74,0,0,1,314.77,173c1.88,0.95,3.71,1.95,5.47,3,18.06,11.05,29.49,28.55,29.49,60C349.73,241.83,344.52,270.57,313.2,287Z" transform="translate(-0.5 0.06)"/>
    <circle cx="251.77" cy="142.14" r="14.09"/>
    <circle cx="154.31" cy="142.14" r="14.09"/>
  </symbol>


</svg>
